<svg xmlns="http://www.w3.org/2000/svg" xmlns:xlink="http://www.w3.org/1999/xlink" width="130" height="130"><defs><path id="a" d="M2.107 0h8.953l1.58 2.288v68.828H0V2.288z"/></defs><g fill="none" fill-rule="evenodd"><path fill="#F2F4F5" d="M18.926 72.782h8.97l1.495 1.204v34.433h-11.96V73.931zm53.294-7.139h8.133l1.356 1.445v41.331H70.865V67.023zm26.508-16.981h6.88l1.147 2.018v57.739h-9.174v-57.83zm25.693 34.884h.739l.123 2.01v22.863h-.985V85.466z"/><g transform="translate(41.447 37.498)"><mask id="b" fill="#fff"><use xlink:href="#a"/></mask><use fill="#2E5BFF" xlink:href="#a"/><path fill="#1D3C81" d="M10.307-1.705L-28.44 51.571l8.698-59.363z" mask="url(#b)"/></g><path fill="#FFCE32" d="M120.359 20.434c2.911 0 5.271 2.492 5.271 5.566s-2.36 5.566-5.27 5.566c-2.912 0-5.271-2.492-5.271-5.566s2.36-5.566 5.27-5.566zm0 4.453c-.582 0-1.054.498-1.054 1.113s.472 1.113 1.054 1.113c.583 0 1.055-.498 1.055-1.113s-.472-1.113-1.055-1.113z"/><path stroke="#FFCE32" stroke-width="2.783" d="M21.185 90.071L49.65 56.443l21.765 25.889 46.871-53.601"/><path stroke="#F2F4F5" stroke-linecap="square" stroke-width="1.67" d="M7.184 108.413h115.632"/></g></svg>